<?xml version="1.0" encoding="utf-8"?>
<!-- (c) ammap.com | SVG map of India 2019 - Low -->
<svg xmlns="http://www.w3.org/2000/svg" xmlns:amcharts="http://amcharts.com/ammap" xmlns:xlink="http://www.w3.org/1999/xlink" version="1.1">
	<defs>
		<style type="text/css">
			.land
			{
				fill: #CCCCCC;
				fill-opacity: 1;
				stroke:white;
				stroke-opacity: 1;
				stroke-width:0.5;
			}
		</style>

		<amcharts:ammap projection="mercator" leftLongitude="68.190843" topLatitude="37.054813" rightLongitude="97.403472" bottomLatitude="6.75018"></amcharts:ammap>

		<!-- All areas are listed in the line below. You can use this list in your script. -->
		<!--{id:"IN-AN"},{id:"IN-AP"},{id:"IN-AR"},{id:"IN-AS"},{id:"IN-BR"},{id:"IN-CH"},{id:"IN-CT"},{id:"IN-DD"},{id:"IN-DL"},{id:"IN-DN"},{id:"IN-GA"},{id:"IN-GJ"},{id:"IN-HP"},{id:"IN-HR"},{id:"IN-JH"},{id:"IN-LK"},{id:"IN-KA"},{id:"IN-KL"},{id:"IN-LD"},{id:"IN-MH"},{id:"IN-ML"},{id:"IN-MN"},{id:"IN-MP"},{id:"IN-MZ"},{id:"IN-NL"},{id:"IN-OR"},{id:"IN-PB"},{id:"IN-PY"},{id:"IN-RJ"},{id:"IN-SK"},{id:"IN-TG"},{id:"IN-TN"},{id:"IN-TR"},{id:"IN-UP"},{id:"IN-UT"},{id:"IN-WB"},{id:"IN-JK"}-->

	</defs>
	<g>
		<path id="IN-AN" title="Andaman and Nicobar Islands" class="land" d="M644.365,631.97l0.784,-0.182l2.812,4.536l-2.241,10.186l-5.105,-0.221l1.002,-12.594L644.365,631.97zM662.232,753.391l0.622,5.102l-2.519,-3.594L662.232,753.391zM645.149,631.788l-0.784,0.182l-1.428,-3.713l1.335,-9.317l2.041,-4.226l2.926,-0.965l1.599,6.206l-2.265,8.035L645.149,631.788zM670.588,779.876l2.659,5.73l-3.16,6.394l-4.284,-6.597l0.604,-4.793L670.588,779.876zM640.65,648.718l0.475,7.163l1.817,1.577l-2.019,11.082l-3.907,-5.677l0.015,-6.588L640.65,648.718zM635.814,683.692l2.116,5.732l-2.189,4.356l-3.34,-0.538l0.319,-5.967L635.814,683.692zM642.631,646.765l2.347,0.123l-3.326,5.512L642.631,646.765z"/>
		<path id="IN-AP" title="Andhra Pradesh" class="land" d="M368.757,531.643L367.662,532.275L369.028,535.477L353.62,542.209L348.929,540.93L341.718,542.971L338.596,551.002L333.92,557.326L330.137,557.819L329.701,554.429L322.694,554.109L315.702,558.888L311.243,568.363L309.9,574.434L311.643,583.479L313.843,587.235L312.035,599.42L315.041,607.313L309.979,613.361L316.804,617.694L310.463,614.683L306.7,619.954L297.675,622.322L293.718,620.277L293.585,623.836L288.214,625.191L286.499,628.546L279.267,626.483L272.408,629.288L270.683,636.955L265.995,638.884L262.135,635.204L268.171,627.912L271.462,621.887L265.651,619.453L266.582,613.624L262.319,613.387L258.041,610.747L259.335,606.755L251.864,606.239L243.619,610.812L242.185,607.901L233.465,606.533L234.581,609.009L230.033,609.325L231.164,604.541L227.186,599.171L230.745,598.081L234.078,602.814L238.753,601.996L243.199,595.491L234.204,593.766L232.974,597.021L228.602,596.319L226.833,590.35L223.958,586.859L226.683,577.395L224.918,574.082L232.287,576.455L234.518,569.684L231.836,568.042L230.992,559.888L231.951,552.946L236.733,551.419L243.544,552.385L251.118,553.835L260.672,554.263L263.076,549.497L272.496,547.729L275.022,549.619L280.167,547.565L283.315,543.892L288.224,544.051L288.396,537.031L302.763,531.245L307.553,533.532L310.469,529.048L308.43,527.751L313.408,523.001L316.992,527.548L323.359,530.374L323.917,526.097L318.012,524.941L323.291,520.567L330.408,523.504L332.313,518.914L339.043,518.096L339.533,515.752L347.686,512.442L349.861,505.194L355.239,502.428L354.609,500.822L361.572,496.522L367.914,498.391L370.372,487.32L373.318,484.001L376.109,490.974L380.979,489.379L381.818,486.55L388.464,488.225L389.403,483.974L387.37,481.33L397.82,475.572L403.361,467.879L406.564,474.033L407.642,471.676L409.814,476.641L415.346,478.568L421.893,477.331L424.726,472.759L430.592,467.797L433.101,470.03L422.521,483.479L416.465,489.948L402.037,497.559L392.648,508.728L376.812,516.431L370.56,521.07L367.626,527.141L370.189,528.057z"/>
		<path id="IN-AR" title="Arunachal Pradesh" class="land" d="M706.962,270.973L705.861,261.65L716.176,256.773L724.445,255.143L727.371,253.156L722.953,251.524L723.789,248.311L720.571,243.662L726.302,237.456L716.611,237.736L686.629,248.194L681.204,246.019L678.72,250.276L669.337,259.187L666.136,263.529L648.977,264.947L639.555,261.766L637.628,263.77L625.149,265.548L623.213,261.078L622.82,250.232L613.112,250.102L610.77,246.214L612.909,242.771L610.407,240.409L617.734,241.589L620.206,244.08L627.829,240.318L630.59,242.43L636.987,241.311L641.66,236.909L639.659,234.991L649.089,228.707L654.194,227.908L653.245,225.131L657.276,219.898L670.534,218.141L680.223,208.294L691.031,201.38L697.4,205.675L707.305,207.621L711.472,209.601L721.078,201.176L728.998,198.38L735.944,206.021L729.884,208.463L731.243,212.951L735.954,209.648L739.371,210.647L742.993,216.28L735.404,222.673L733.785,225.827L737.944,227.458L744.264,224.458L752.94,228.366L755.45,226.969L763.502,231.392L761.076,234.617L763.201,239.341L759.736,238.998L750.354,246.544L750.727,250.678L757.521,259.196L749.78,257.713L747.865,253.507L742.902,253.118L733.017,255.326L727.843,257.648L719.854,265.713L714.677,267.185L711.961,270.613z"/>
		<path id="IN-AS" title="Assam" class="land" d="M625.149,265.548L637.628,263.77L639.555,261.766L648.977,264.947L666.136,263.529L669.337,259.187L678.72,250.276L681.204,246.019L686.629,248.194L716.611,237.736L726.302,237.456L720.571,243.662L723.789,248.311L722.953,251.524L727.371,253.156L724.445,255.143L716.176,256.773L705.861,261.65L695.58,267.842L682.186,274.167L674.736,284.384L674.072,291.012L666.912,292.87L657.143,300.76L660.861,306.968L654.975,314.561L653.63,319.986L648.483,330.653L644,331.319L642.333,327.578L636.224,336.556L630.084,334.613L628.368,328.016L630.127,321.941L628.617,317.688L635.187,318.347L633.464,314.221L643.358,309.32L633.653,295.933L626.531,297.491L626.417,290.356L630.103,286.844L620.294,288.925L617.606,285.81L615.016,290.113L611.243,288.047L607.807,293.068L601.208,295.982L601.326,292.599L596.21,293.559L594.693,290.283L586.382,291.556L582.526,288.514L573.151,289.925L567.242,295.84L570.502,299.312L566.654,300.827L565.201,293.698L567.184,290.475L562.698,284.573L566.668,276.892L566.311,270.516L574.982,268.77L580.759,265.337L588.668,268.848L614.155,267.867L619.644,264.965z"/>
		<path id="IN-BR" title="Bihar" class="land" d="M520.543,274.912L525.399,279.662L513.642,287.75L513.138,292.273L519.039,297.001L519.609,302.492L515.836,301.037L511.472,304.465L512.216,309.289L506.792,305.946L503.971,309.965L500.084,309.221L499.238,312.72L495.466,314.417L495.762,318.043L492.948,325.333L488.398,326.364L481.249,325.376L477.31,331.558L472.786,329.116L473.928,325.925L468.973,325.417L466.812,320.815L464.19,322.057L458.607,319.689L456.724,325.982L446.734,327.426L436.683,331.466L433.998,327.353L428.173,330.414L426.11,333.69L413.005,324.516L411.338,326.871L400.09,327.416L401.22,324.825L396.322,318.436L395.834,310.311L401.17,306.75L408.983,303.632L417.083,295.945L418.512,297.548L429.692,296.015L427.027,292.109L420.954,290.298L413.683,285.119L417.374,282.485L417.688,279.137L410.652,275.37L415.346,272.109L424.041,272.519L419.675,269.849L419.511,266.369L414.568,265.604L412.654,257.533L409.51,253.598L417.206,249.268L420.943,252.73L429.468,253.932L431.325,257.158L430.065,261.537L434.954,262.268L444.516,266.26L448.14,269.532L455.991,266.121L458.551,271.809L461.623,274.055L466.292,271.493L474.096,272.725L484.663,277.88L493.57,273.608L494.083,277.149L500.606,279.829L503.891,277.41L507.534,278.964L514.911,276.198L517.778,279.379z"/>
		<path id="IN-CH" title="Chandigarh" class="land" d="M225.735,164.386L225.516,166.424L222.14,164.483z"/>
		<path id="IN-CT" title="Chhattisgarh" class="land" d="M395.525,338.543L400.313,340.455L401.738,344.776L405.246,345.882L407.324,351.663L413.801,353.107L412.315,357.368L415.044,358.708L414.089,363.715L417.077,368.277L422.894,367.984L422.877,370.875L418.975,375.989L413.273,379.858L413.318,383.862L403.948,387.603L401.141,392.027L402.347,397.561L395.815,406.661L392.037,416.072L385.919,415.027L377.552,415.709L377.195,418.658L372.928,424.219L369.988,422.649L369.397,431.276L372.146,434.624L371.145,444.197L379.422,446.01L379.297,450.171L372.491,448.289L369.802,450.199L366.956,445.804L359.395,443.082L356.997,448.158L362.492,451.425L362.134,457.815L365.713,460.979L364.894,464.955L367.189,474.235L354.709,487.283L348.588,491.262L344.851,503.09L338.959,501.887L335.636,503.531L333.324,495.916L331.181,494.566L327.639,487.345L321.286,481.616L317.583,482.705L315.641,479.268L317.757,476.497L315.644,473.757L317.139,468.194L323.49,461.415L328.232,464.399L331.966,459.721L325.818,455.89L326.052,453.8L320.911,450.337L322.773,442.883L318.657,439.437L324.796,437.032L324.915,429.97L322.811,421.343L319.724,419.363L320.602,415.097L325.809,410.969L327.735,407.275L328.069,399.802L329.852,400.075L332.457,390.359L335.2,390.004L337.663,381.944L343.229,379.768L345.153,381.938L350.884,379.384L355.289,373.435L354.899,370.64L359.366,368.455L359.31,365.3L364.877,363.628L365.787,358.827L360.304,356.535L358.741,353.425L349.68,351.946L352.753,348.477L352.082,343.138L355.247,346.112L372.953,346.125L382.043,342.16L385.468,344.438L392.023,343.256z"/>
		<path id="IN-DD" title="Daman and Diu" class="land" d="M64.857,425.797L66.632,419.873L70.777,422.602L69.329,425.78L70.471,427.202z"/>
		<path id="IN-DL" title="Delhi" class="land" d="M235.111,213.974L239.055,223.328L234.56,225.955L230.386,222.444L225.982,222.073L228.719,215.18z"/>
		<path id="IN-DN" title="Dadra and Nagar Haveli" class="land" d="M131.32,442.566L130.524,444.372L124.966,442.337L124.893,440.203L123.695,438.47L129.884,437.464z"/>
		<path id="IN-GA" title="Goa" class="land" d="M143.445,557.52L150.378,557.072L152.536,560.651L155.1,559.457L158.478,559.354L160.737,568.799L159.709,575.414L154.351,579.184L150.938,574.73L149.058,567.781z"/>
		<path id="IN-GJ" title="Gujarat" class="land" d="M4.335,346.288l-1.14,5.801l-3.057,-0.348L4.335,346.288zM6.208,341.313L0,348.225l2.208,-4.806L6.208,341.313zM76.186,323.401l4.982,1.909l4.982,-1.732l4.528,1.062l10.219,-1.897l10.194,5.268l6.66,1.23l0.922,2.509l5.003,0.913l2.323,-4.081l4.109,3.444l-2.282,4.332l8.654,3.499l-1.351,4.946l3.958,6.407l3.85,-0.16l-0.731,4.456l5.211,0.149l10.82,6.757l2.006,3.282l4.081,5.334l-2.476,5.623l-3.106,-0.033l-5.056,7.438l1.936,10.618l-8.77,3.416l2.244,3.218l-2.842,1.967l1.913,3.378l11.629,-1.813l-1.464,2.675l-4.771,-0.498l-6.395,8.103l-3.692,0.519l2.445,3.703l3.44,0.714l1.126,6.296l-2.908,3.308l-5.268,0.954l-4.03,-3.605l-2.088,1.949l2.563,2.677l-1.852,8.731l-5.584,2.202l-1.436,-5.103l-6.189,1.006l1.198,1.733l-6.085,1.982l0.472,-4.067l3.71,-7.71l-8.097,-18.407l2.491,-6.579l-3.805,-3.173l-0.922,-7.602l1.183,-5.112l5.345,-2.1l-3.079,-1.401l-3.878,2.28L110.9,385.6l-4.095,9.65l0.719,7.935l-5.853,10.006l0.829,1.285l-17.602,8.541l-14.427,4.186l-1.142,-1.422l1.448,-3.179l-4.145,-2.729l-1.775,5.924l-6.136,-2.332l-8.873,-6.584l-10.311,-11.356l-12.366,-10.551l-7.182,-7.711l2.875,-6.339l3.312,1.474l1.009,4.335l2.643,-1.88l12.127,-1.831l4.052,-3.392l5.496,-0.573l8.641,-13.687l-3.813,3.783l-2.875,-1.286l-11.48,3.371l-2.417,2.882l-13.295,-2.564l-15.836,-9.816l1.183,-3.472l-3.514,-3.122l-0.355,-4.342l5.961,-5.889l-5.271,0.857l6.12,-3.585l0.612,-8.682l11.165,1.541l10.48,-1.116l3.239,2.687l7.216,0.227l3.095,-3.25l11.915,-3.388l-0.016,4.392l6.052,0.774l8.522,-4.68l-3.239,-1.051L76.186,323.401z"/>
		<path id="IN-HP" title="Himachal Pradesh" class="land" d="M200.754,117.01L201.799,112.28L199.066,107.767L202.669,108.934L210.289,105.08L214.325,101.051L223.477,100.383L230.187,106.204L233.792,106.442L239.545,110.499L248.851,106.668L254.148,112.046L255.911,116.74L266.074,112.157L267.104,118.695L269.927,121.132L267.848,125.629L276.521,132.077L274.438,137.473L278.092,142.129L274.838,144.661L280.073,151.437L282.417,155.197L277.149,152.852L268.655,152.886L264.166,150.678L253.426,154.168L249.428,159.269L248.218,164.259L251.118,170.984L244.945,173.779L245.254,174.301L235.523,171.796L234.194,166.302L227.669,160.899L224.21,160.659L220.034,158.102L218.999,150.889L213.475,147.347L208.604,150.194L201.33,133.383L193.075,129.936L194.22,125.937L202.313,121.176z"/>
		<path id="IN-HR" title="Haryana" class="land" d="M224.21,160.659L227.669,160.899L234.194,166.302L235.523,171.796L245.254,174.301L241.06,181.552L237.295,183.088L232.464,194.787L233.87,198.936L233.417,207.727L235.111,213.974L228.719,215.18L225.982,222.073L230.386,222.444L234.56,225.955L239.055,223.328L244.374,230.157L244.217,236.807L237.436,241.689L227.114,244.491L229.227,232.868L226.318,230.707L218.155,237.402L216.397,232.588L208.136,236.659L209.923,240.791L203.121,240.168L206.515,232.575L201.19,226.342L192.473,220.566L187.896,208.654L188.29,203.645L180.774,204.564L173.793,199.93L167.404,201.024L165.995,198.296L167.631,190.812L164.144,191.043L165.375,185.833L168.718,186.844L172.749,184.545L183.984,190.833L183.788,196.216L189.56,189.375L196.178,190.75L199.617,189.258L205.018,190.974L210.413,187.776L209.077,183.923L214.281,181.018L219.163,182.389L219.352,177.646L223.897,172.88L227.321,172.822L227.964,168.675L225.516,166.424L225.735,164.386z"/>
		<path id="IN-JH" title="Jharkhand" class="land" d="M400.09,327.416L411.338,326.871L413.005,324.516L426.11,333.69L428.173,330.414L433.998,327.353L436.683,331.466L446.734,327.426L456.724,325.982L458.607,319.689L464.19,322.057L466.812,320.815L468.973,325.417L473.928,325.925L472.786,329.116L477.31,331.558L481.249,325.376L488.398,326.364L492.948,325.333L495.762,318.043L495.466,314.417L499.238,312.72L500.084,309.221L503.971,309.965L506.792,305.946L512.216,309.289L511.928,312.667L517.072,317.76L513.58,321.897L515.416,325.67L509.655,337.277L504.532,338.182L503.601,341.679L497.85,340.116L499.328,343.845L494.875,346.551L488.885,344.331L486.193,349.366L475.446,352.058L471.845,356.366L469.273,352.491L461.987,355.042L461.086,362.234L466.454,363.58L471.043,367.546L478.49,367.597L476.367,373.175L485.354,378.511L485.414,382.357L488.641,386.884L484.382,387.846L474.709,384.445L466.495,378.742L464.273,381.555L466.62,385.47L463.016,394.346L449.659,389.328L445.385,393.466L439.969,390.547L440.981,380.968L436.572,382.546L426.975,382.494L420.769,384.657L413.273,379.858L418.975,375.989L422.877,370.875L422.894,367.984L417.077,368.277L414.089,363.715L415.044,358.708L412.315,357.368L413.801,353.107L407.324,351.663L405.246,345.882L401.738,344.776L400.313,340.455L395.525,338.543z"/>
		<path id="IN-LK" title="Ladakh" class="land" d="M223.477,100.383L220.121,95.674L212.595,90.822L209.112,92.19L210.729,87.899L204.633,81.368L199.471,81.617L192.94,74.999L187.678,72.013L184.381,61.439L180.649,57.894L177.042,60.63L168.023,57.147L165.099,51.425L159.315,53.913L154.403,52.01L144.214,45.163L145.953,39.163L133.528,38.047L129.179,31.825L121.971,29.802L116.752,31.217L115.635,25.056L117.375,21.127L123.463,17.305L132.657,7.884L149.434,8.284L144.99,5.261L148.563,3.789L154.03,5.984L169.066,0L175.9,2.591L186.836,1.395L196.068,12.028L211.974,19.557L223.405,26.509L225.27,33.585L237.322,35.511L242.417,42.008L246.766,42.415L259.565,39.67L264.945,34.396L273.52,31.359L283.709,32.979L288.803,27.821L293.525,31.359L302.347,33.181L306.572,31.764L314.4,38.351L314.774,44.857L308.933,61.109L302.422,63.697L301.428,67.089L295.215,68.016L297.219,72.958L296.131,76.83L292.016,79.675L286.734,78.381L281.064,79.804L284.715,88.293L281.064,91.348L280.39,95.222L284.466,99.956L293.22,101.258L291.72,106.479L296.449,112.208L296.763,116.195L285.814,119.934L281.911,123.111L276.787,119.647L275.866,113.876L267.104,118.695L266.074,112.157L255.911,116.74L254.148,112.046L248.851,106.668L239.545,110.499L233.792,106.442L230.187,106.204z"/>
		<path id="IN-KA" title="Karnataka" class="land" d="M155.1,559.457L155.22,557.689L161.343,556.23L164.958,544.275L160.921,542.695L160.417,535.848L166.221,533.764L169.853,534.515L170.057,531.619L175.955,530.189L176.335,525.717L180.31,525.518L183.588,528.35L185.486,525.356L195.581,525.214L194.561,511.692L202.287,515.703L214.753,514.521L212.756,508.627L228.042,500.254L229.027,493.202L233.073,494.043L236.506,487.353L239.889,486.332L239.606,489.914L244.603,490.418L247.118,498.212L241.999,506.104L241.726,508.976L248.106,511.813L243.562,513.007L239.637,519.95L243.28,523.983L241.294,531.638L242.36,535.044L237.667,539.78L245.691,541.492L243.328,543.314L243.544,552.385L236.733,551.419L231.951,552.946L230.992,559.888L231.836,568.042L234.518,569.684L232.287,576.455L224.918,574.082L226.683,577.395L223.958,586.859L226.833,590.35L228.602,596.319L232.974,597.021L234.204,593.766L243.199,595.491L238.753,601.996L234.078,602.814L230.745,598.081L227.186,599.171L231.164,604.541L230.033,609.325L234.581,609.009L233.465,606.533L242.185,607.901L243.619,610.812L251.864,606.239L259.335,606.755L258.041,610.747L262.319,613.387L266.582,613.624L265.651,619.453L271.462,621.887L268.171,627.912L262.135,635.204L254.217,631.914L250.744,633.08L249.346,637.521L245.658,637.688L246.01,645.628L242.399,649.589L249.214,650.504L247.491,656.492L242.889,656.644L241.186,661.394L237.672,660.147L227.604,660.541L226.329,665.285L215.156,663.781L206.907,655.644L200.864,656.425L198.85,653.017L193.025,650.936L181.884,637.197L174.471,635.154L169.977,619.648L167.667,606.085L164.916,602.004L158.773,583.909L154.3,581.717L154.351,579.184L159.709,575.414L160.737,568.799L158.478,559.354z"/>
		<path id="IN-KL" title="Kerala" class="land" d="M174.471,635.154L181.884,637.197L193.025,650.936L198.85,653.017L200.864,656.425L206.907,655.644L215.156,663.781L209.987,666.263L210.362,669.001L218.155,671.824L215.755,674.992L223.397,677.845L221.055,682.998L227.547,687.009L225.775,691.863L225.513,699.439L229.463,701.703L234.486,698.105L237.558,701.738L235.136,704.738L236.997,708.376L234.196,717.455L239.138,717.742L240.584,720.316L237.202,725.692L236.808,729.56L233.682,732.987L236.578,736.976L234.287,740.157L237.158,745.388L232.749,751.646L229.569,749.37L217.646,732.814L212.92,722.424L209.942,707.755L206.682,697.206L201.737,686.445L197.178,671.783L194.084,668.545L192.123,663.194L182.698,652.39z"/>
		<path id="IN-LD" title="Lakshadweep" class="land" d="M120.265,674.272L119.51,676.357L119.946,674.767z"/>
		<path id="IN-MH" title="Maharashtra" class="land" d="M155.623,394.675L161.957,392.946L165.594,395.859L165.169,400.617L172.485,403.653L179.456,404.847L183.693,408.874L192.274,409.877L206.666,409.839L208.599,417.402L213.925,417.594L216.827,414.489L220.381,414.578L220.412,410.854L224.585,407.419L224.877,403.994L232.117,400.718L242.656,399.448L245.048,405.766L241.126,405.68L242.958,409.74L254.767,409.5L261.097,405.01L267.413,403.879L275.181,407.468L280.725,406.874L280.239,404.129L288.255,402.601L288.485,400.69L295.278,401.992L296.535,405.388L301.658,403.864L304.911,405.735L313.567,403.035L318.335,405.996L320.16,409.887L325.809,410.969L320.602,415.097L319.724,419.363L322.811,421.343L324.915,429.97L324.796,437.032L318.657,439.437L322.773,442.883L320.911,450.337L326.052,453.8L325.818,455.89L331.966,459.721L328.232,464.399L323.49,461.415L317.139,468.194L315.644,473.757L317.757,476.497L315.641,479.268L311.544,480.359L305.876,476.316L306.935,471.328L304.937,469.172L307.942,461.412L301.859,456.13L294.804,458.891L288.882,455.883L287.154,459.852L282.987,457.78L278.472,452.07L266.762,450.03L263.417,454.561L264.441,459.964L261.129,461.132L260.813,465.717L255.032,462.974L252.73,463.997L250.285,472.381L254.865,476.54L249.384,480.364L249.479,483.532L245.839,483.723L244.603,490.418L239.606,489.914L239.889,486.332L236.506,487.353L233.073,494.043L229.027,493.202L228.042,500.254L212.756,508.627L214.753,514.521L202.287,515.703L194.561,511.692L195.581,525.214L185.486,525.356L183.588,528.35L180.31,525.518L176.335,525.717L175.955,530.189L170.057,531.619L169.853,534.515L166.221,533.764L160.417,535.848L160.921,542.695L164.958,544.275L161.343,556.23L155.22,557.689L155.1,559.457L152.536,560.651L150.378,557.072L143.445,557.52L138.994,551.953L135.203,538.824L133.358,524.542L130.033,513.585L130.477,510.956L127.651,500.732L125.4,496.593L125.48,490.886L121.879,479.82L125.48,470.352L121.603,473.874L120.412,463.235L116.89,447.509L118.808,442.186L124.893,440.203L124.966,442.337L130.524,444.372L131.32,442.566L136.904,440.364L138.755,431.633L136.193,428.956L138.281,427.007L142.311,430.612L147.579,429.658L150.487,426.351L149.36,420.055L145.92,419.341L143.475,415.638L147.167,415.119L153.562,407.017L158.333,407.515L159.796,404.84L148.167,406.653L146.254,403.275L149.096,401.309L146.853,398.091z"/>
		<path id="IN-ML" title="Meghalaya" class="land" d="M566.654,300.827L570.502,299.312L567.242,295.84L573.151,289.925L582.526,288.514L586.382,291.556L594.693,290.283L596.21,293.559L601.326,292.599L601.208,295.982L607.807,293.068L611.243,288.047L615.016,290.113L617.606,285.81L620.294,288.925L630.103,286.844L626.417,290.356L626.531,297.491L633.653,295.933L643.358,309.32L633.464,314.221L624.087,310.088L608.582,311.555L603.347,309.712L592.712,310.972L573.061,309.121L565.717,307.324L566.262,302.609z"/>
		<path id="IN-MN" title="Manipur" class="land" d="M660.861,306.968L664.364,309.772L669.616,302.882L668.615,300.931L674.994,299.47L682.807,302.128L689.589,296.816L689.182,301.65L692.449,303.036L689.912,309.414L694.103,311.482L690.579,322.317L685.156,328.443L678.831,345.042L668.257,340.945L661.936,342.574L657.289,339.798L647.853,338.191L648.483,330.653L653.63,319.986L654.975,314.561z"/>
		<path id="IN-MP" title="Madhya Pradesh" class="land" d="M261.851,267.057L265.551,266.057L271.159,269.107L275.066,267.995L282.329,271.018L286.003,279.895L282.589,286.775L275.889,295.472L277.415,298.728L269.078,299.833L264.091,305.256L266.44,309.951L264.928,315.064L260.689,318.144L263.385,323.755L262.11,327.527L266.291,333.99L269.577,330.896L277.062,336.482L282.099,329.657L279.416,324.472L276.675,325.69L276.351,318.677L272.627,315.97L271.035,304.708L276.348,305.685L275.309,302.942L280.697,300.422L282.637,307.813L285.884,312.157L290.729,311.084L291.397,307.924L295.313,312.891L301.998,311.292L313.716,304.173L319.723,310.501L315.625,314.262L321.566,313.869L330.508,310.016L332.302,310.863L330.472,316.764L338.25,317.875L343.413,310.545L347.432,313.094L349.593,309.937L352.006,312.969L357.951,315.241L358.221,317.862L367.159,321.474L366.938,323.688L378.126,322.884L380.81,331.442L379.758,337.56L382.043,342.16L372.953,346.125L355.247,346.112L352.082,343.138L352.753,348.477L349.68,351.946L358.741,353.425L360.304,356.535L365.787,358.827L364.877,363.628L359.31,365.3L359.366,368.455L354.899,370.64L355.289,373.435L350.884,379.384L345.153,381.938L343.229,379.768L337.663,381.944L335.2,390.004L332.457,390.359L329.852,400.075L328.069,399.802L327.735,407.275L325.809,410.969L320.16,409.887L318.335,405.996L313.567,403.035L304.911,405.735L301.658,403.864L296.535,405.388L295.278,401.992L288.485,400.69L288.255,402.601L280.239,404.129L280.725,406.874L275.181,407.468L267.413,403.879L261.097,405.01L254.767,409.5L242.958,409.74L241.126,405.68L245.048,405.766L242.656,399.448L232.117,400.718L224.877,403.994L224.585,407.419L220.412,410.854L220.381,414.578L216.827,414.489L213.925,417.594L208.599,417.402L206.666,409.839L192.274,409.877L183.693,408.874L179.456,404.847L172.485,403.653L165.169,400.617L165.594,395.859L161.957,392.946L155.623,394.675L153.687,384.057L158.743,376.619L161.849,376.652L164.325,371.029L160.244,365.695L165.197,365.012L171.301,361.251L165.354,358.741L167.839,355.273L176.37,350.855L175.48,344.49L177.763,340.417L174.54,333.856L171.484,333.805L174.238,328.977L170.416,327.838L173.165,323.635L178.131,320.384L175.857,317.879L181.053,317.954L182.106,313.865L186.979,313.935L182.795,321.117L193.979,323.198L197.804,321.202L201.708,329.269L196.947,330.601L199.794,338.281L196.255,342.002L191.392,339.92L189.879,343.264L194.985,346.371L203.455,342.946L203.045,340.53L209.721,335.526L216.371,335.145L225.027,338.047L228.774,335.802L226.048,332.339L225.38,327.225L230.266,328.701L230.923,322.611L225.04,319.762L228.891,318.376L226.419,314.784L234.66,312.08L240.644,312.092L238.207,303.646L235.589,306.912L228.706,307.855L219.837,304.884L217.688,301.201L217.923,294.194L225.164,290.142L227.293,286.474L251.479,274.41L253.611,271.603L258.608,271.058z"/>
		<path id="IN-MZ" title="Mizoram" class="land" d="M630.084,334.613L636.224,336.556L642.333,327.578L644,331.319L648.483,330.653L647.853,338.191L657.289,339.798L660.096,349.496L658.032,358.066L658.761,363.71L656.253,367.181L651.945,366.091L650.868,374.932L653.923,386.65L649.689,388.309L648.712,393.894L640.611,389.596L638.267,394.079L638.377,388.954L636.229,376.323L632.144,369.037L633.013,360.901L629.349,348.288L631.135,337.356z"/>
		<path id="IN-NL" title="Nagaland" class="land" d="M705.861,261.65L706.962,270.973L702.507,276.849L704.3,278.775L703.902,286.044L705.605,286.813L701.154,292.258L702.124,295.117L698.267,300.228L692.449,303.036L689.182,301.65L689.589,296.816L682.807,302.128L674.994,299.47L668.615,300.931L669.616,302.882L664.364,309.772L660.861,306.968L657.143,300.76L666.912,292.87L674.072,291.012L674.736,284.384L682.186,274.167L695.58,267.842z"/>
		<path id="IN-OR" title="Odisha" class="land" d="M413.273,379.858l7.495,4.799l6.206,-2.163l9.597,0.052l4.41,-1.579l-1.013,9.579l5.417,2.919l4.273,-4.138l13.357,5.018l3.604,-8.875l-2.347,-3.915l2.222,-2.813l8.215,5.703l9.673,3.401l-0.191,1.876l6.32,1.572l3.592,5.832l1.903,-2.957l2.482,4.17l4.738,1.385l1.003,3.979l-7.349,1.574l-8.069,6.066l-1.801,4.655l3.834,8.27l-3.867,1.66l-0.086,3.124l0.256,-0.872l2.754,-1.005l2.909,0.033l-6.816,4.539l-0.094,4.967l-5.94,3.549l-4.951,6.701l-18.313,5.608l-7.269,3.477l-12.362,9.059l-3.964,4.922l-2.509,-2.233l-5.866,4.962l-2.833,4.572l-6.547,1.237l-5.531,-1.928l-2.173,-4.965l-1.078,2.357l-3.203,-6.154l-5.542,7.693l-10.45,5.758l2.033,2.644l-0.939,4.251l-6.646,-1.675l-0.84,2.829l-4.87,1.595l-2.791,-6.973l-2.947,3.319l-2.458,11.07l-6.342,-1.868l-6.963,4.3l-3.846,2.039l-5.913,0.229l3.738,-11.828l6.121,-3.979l12.48,-13.048l-2.295,-9.28l0.819,-3.977l-3.579,-3.163l0.358,-6.391l-5.495,-3.267l2.398,-5.076l7.561,2.722l2.846,4.396l2.689,-1.91l6.806,1.882l0.125,-4.161l-8.277,-1.813l1.002,-9.573l-2.749,-3.348l0.591,-8.627l2.939,1.569l4.267,-5.561l0.357,-2.949l8.368,-0.682l6.118,1.045l3.778,-9.411l6.531,-9.101l-1.206,-5.534l2.807,-4.424l9.371,-3.74L413.273,379.858zM489.901,427.176l-2.754,1.005l-0.256,0.872l0.086,-3.124L489.901,427.176z"/>
		<path id="IN-PB" title="Punjab" class="land" d="M200.754,117.01L202.313,121.176L194.22,125.937L193.075,129.936L201.33,133.383L208.604,150.194L213.475,147.347L218.999,150.889L220.034,158.102L224.21,160.659L225.735,164.386L222.14,164.483L225.516,166.424L227.964,168.675L227.321,172.822L223.897,172.88L219.352,177.646L219.163,182.389L214.281,181.018L209.077,183.923L210.413,187.776L205.018,190.974L199.617,189.258L196.178,190.75L189.56,189.375L183.788,196.216L183.984,190.833L172.749,184.545L168.718,186.844L165.375,185.833L148.961,185.134L150.925,179.253L148.44,174.718L160.07,162.196L169.958,155.717L164.996,154.591L168.589,146.188L165.327,139.315L167.498,135.051L174.611,130.751L184.197,129.793L187.438,125.937L186.372,123.254L196.546,121.141z"/>
		<path id="IN-PY" title="Puducherry" class="land" d="M303.43,659.885l-2.223,-1.74l3.196,-1.715L303.43,659.885zM304.759,685.886l-3.251,-2.188l3.338,-2.054L304.759,685.886z"/>
		<path id="IN-RJ" title="Rajasthan" class="land" d="M150.925,179.253L148.961,185.134L165.375,185.833L164.144,191.043L167.631,190.812L165.995,198.296L167.404,201.024L173.793,199.93L180.774,204.564L188.29,203.645L187.896,208.654L192.473,220.566L201.19,226.342L206.515,232.575L203.121,240.168L209.923,240.791L208.136,236.659L216.397,232.588L218.155,237.402L226.318,230.707L229.227,232.868L227.114,244.491L237.436,241.689L238.987,248.917L247.819,257.535L243.255,260.285L247.19,263.457L241.27,266.249L241.43,268.782L248.939,265.875L259.277,263.995L261.851,267.057L258.608,271.058L253.611,271.603L251.479,274.41L227.293,286.474L225.164,290.142L217.923,294.194L217.688,301.201L219.837,304.884L228.706,307.855L235.589,306.912L238.207,303.646L240.644,312.092L234.66,312.08L226.419,314.784L228.891,318.376L225.04,319.762L230.923,322.611L230.266,328.701L225.38,327.225L226.048,332.339L228.774,335.802L225.027,338.047L216.371,335.145L209.721,335.526L203.045,340.53L203.455,342.946L194.985,346.371L189.879,343.264L191.392,339.92L196.255,342.002L199.794,338.281L196.947,330.601L201.708,329.269L197.804,321.202L193.979,323.198L182.795,321.117L186.979,313.935L182.106,313.865L181.053,317.954L175.857,317.879L178.131,320.384L173.165,323.635L170.416,327.838L174.238,328.977L171.484,333.805L174.54,333.856L177.763,340.417L175.48,344.49L176.37,350.855L167.839,355.273L165.354,358.741L171.301,361.251L165.197,365.012L160.244,365.695L158.237,362.413L147.417,355.656L142.206,355.507L142.938,351.051L139.088,351.211L135.13,344.804L136.481,339.858L127.827,336.359L130.109,332.027L126,328.583L123.677,332.664L118.674,331.75L117.751,329.241L111.092,328.011L100.897,322.743L90.678,324.64L86.15,323.578L81.168,325.311L76.186,323.401L71.96,316.764L70.622,311.288L64.868,304.876L64.654,296.828L54.554,296.722L49.756,290.368L51.758,282.506L51.629,274.517L44.09,273.723L34.375,269.349L34.52,262.332L36.217,258.446L47.67,248.239L51.347,240.971L56.816,236.417L61.952,236.115L67.05,244.024L70.357,244.516L80.52,240.765L90.593,240.058L96.843,237.746L97.781,233.316L104.346,227.274L109.581,216.663L124.142,209.781L132.758,195.933L135.896,185.976L146.244,182.616z"/>
		<path id="IN-SK" title="Sikkim" class="land" d="M537.418,258.898L531.382,258.115L529.061,260.639L520.013,259.073L518.212,257.052L518.98,249.813L522.995,242.108L521.008,237.916L527.958,237.205L533.884,233.922L539.541,236.331L540.922,240.258L537.82,248.004L541.88,254.242z"/>
		<path id="IN-TG" title="Telangana" class="land" d="M244.603,490.418L245.839,483.723L249.479,483.532L249.384,480.364L254.865,476.54L250.285,472.381L252.73,463.997L255.032,462.974L260.813,465.717L261.129,461.132L264.441,459.964L263.417,454.561L266.762,450.03L278.472,452.07L282.987,457.78L287.154,459.852L288.882,455.883L294.804,458.891L301.859,456.13L307.942,461.412L304.937,469.172L306.935,471.328L305.876,476.316L311.544,480.359L315.641,479.268L317.583,482.705L321.286,481.616L327.639,487.345L331.181,494.566L333.324,495.916L335.636,503.531L338.959,501.887L344.851,503.09L350.763,502.861L354.609,500.822L355.239,502.428L349.861,505.194L347.686,512.442L339.533,515.752L339.043,518.096L332.313,518.914L330.408,523.504L323.291,520.567L318.012,524.941L323.917,526.097L323.359,530.374L316.992,527.548L313.408,523.001L308.43,527.751L310.469,529.048L307.553,533.532L302.763,531.245L288.396,537.031L288.224,544.051L283.315,543.892L280.167,547.565L275.022,549.619L272.496,547.729L263.076,549.497L260.672,554.263L251.118,553.835L243.544,552.385L243.328,543.314L245.691,541.492L237.667,539.78L242.36,535.044L241.294,531.638L243.28,523.983L239.637,519.95L243.562,513.007L248.106,511.813L241.726,508.976L241.999,506.104L247.118,498.212z"/>
		<path id="IN-TN" title="Tamil Nadu" class="land" d="M262.135,635.204l3.86,3.68l4.688,-1.929l1.725,-7.667l6.858,-2.805l7.232,2.063l1.715,-3.354l5.371,-1.355l0.133,-3.559l3.958,2.045l9.025,-2.368l3.763,-5.271l6.341,3.012l0.858,3.899l-2.353,12.811l-2.556,8.19l-8.35,13.835l-3.196,1.715l2.223,1.74l-1.132,6.396l2.121,5.459l0.428,9.903l-3.338,2.054l3.251,2.188l0.733,13.52l-12.903,-0.53l-4.095,4.51l1.002,2.78l-7.146,8.613l-2.505,5.968l4.321,4.698l-17.064,4.931l-5.271,3.986l-2.723,8.045l-0.987,7.341l-13.492,7.688l-6.143,-1.16l-5.737,-4.629l4.409,-6.259l-2.871,-5.23l2.292,-3.182l-2.896,-3.988l3.126,-3.428l0.394,-3.867l3.383,-5.376l-1.447,-2.574l-4.941,-0.287l2.8,-9.079l-1.861,-3.638l2.422,-3l-3.071,-3.633l-5.023,3.598l-3.95,-2.264l0.263,-7.576l1.772,-4.854l-6.492,-4.011l2.342,-5.153l-7.642,-2.853l2.4,-3.168l-7.792,-2.823l-0.375,-2.738l5.168,-2.481l11.173,1.504l1.275,-4.744l10.068,-0.394l3.514,1.246l1.703,-4.75l4.603,-0.151l1.723,-5.988l-6.815,-0.915l3.611,-3.961l-0.353,-7.94l3.688,-0.167l1.397,-4.44l3.473,-1.166L262.135,635.204zM290.672,724.712l3.333,4.45l-5.736,-3.502L290.672,724.712z"/>
		<path id="IN-TR" title="Tripura" class="land" d="M628.368,328.016L630.084,334.613L631.135,337.356L629.349,348.288L624.177,350.482L620.821,349.51L621.682,354.722L616.444,360.065L618.028,364.839L611.032,368.057L608.207,360.676L604.825,363.211L602.824,354.532L600.524,351.591L602.268,344.247L606.072,338.332L612.765,338.512L615.624,334.734L619.975,337.475L621.653,331.035L625.446,331.16z"/>
		<path id="IN-UP" title="Uttar Pradesh" class="land" d="M244.945,173.779L254.576,177.896L250.784,181.739L248.577,187.703L250.034,191.778L255.111,192.053L256.054,196.224L265.039,189.68L270.151,194.171L280.493,198.568L276.987,201.885L279.904,206.555L285.927,207.111L286.645,209.895L293.001,212.263L293.256,214.26L302.752,213.319L309.003,217.357L310.539,214.943L320.484,220.195L323.558,218.653L336.919,226.573L340.34,227.208L343.216,231.478L357.97,240.366L362.749,238.635L372.709,245.033L379.485,243.907L380.193,249.622L392.04,250.905L395.088,254.114L397.287,250.239L403.189,250.502L409.51,253.598L412.654,257.533L414.568,265.604L419.511,266.369L419.675,269.849L424.041,272.519L415.346,272.109L410.652,275.37L417.688,279.137L417.374,282.485L413.683,285.119L420.954,290.298L427.027,292.109L429.692,296.015L418.512,297.548L417.083,295.945L408.983,303.632L401.17,306.75L395.834,310.311L396.322,318.436L401.22,324.825L400.09,327.416L395.525,338.543L392.023,343.256L385.468,344.438L382.043,342.16L379.758,337.56L380.81,331.442L378.126,322.884L366.938,323.688L367.159,321.474L358.221,317.862L357.951,315.241L352.006,312.969L349.593,309.937L347.432,313.094L343.413,310.545L338.25,317.875L330.472,316.764L332.302,310.863L330.508,310.016L321.566,313.869L315.625,314.262L319.723,310.501L313.716,304.173L301.998,311.292L295.313,312.891L291.397,307.924L290.729,311.084L285.884,312.157L282.637,307.813L280.697,300.422L275.309,302.942L276.348,305.685L271.035,304.708L272.627,315.97L276.351,318.677L276.675,325.69L279.416,324.472L282.099,329.657L277.062,336.482L269.577,330.896L266.291,333.99L262.11,327.527L263.385,323.755L260.689,318.144L264.928,315.064L266.44,309.951L264.091,305.256L269.078,299.833L277.415,298.728L275.889,295.472L282.589,286.775L286.003,279.895L282.329,271.018L275.066,267.995L271.159,269.107L265.551,266.057L261.851,267.057L259.277,263.995L248.939,265.875L241.43,268.782L241.27,266.249L247.19,263.457L243.255,260.285L247.819,257.535L238.987,248.917L237.436,241.689L244.217,236.807L244.374,230.157L239.055,223.328L235.111,213.974L233.417,207.727L233.87,198.936L232.464,194.787L237.295,183.088L241.06,181.552L245.254,174.301z"/>
		<path id="IN-UT" title="Uttarakhand" class="land" d="M310.539,214.943L309.003,217.357L302.752,213.319L293.256,214.26L293.001,212.263L286.645,209.895L285.927,207.111L279.904,206.555L276.987,201.885L280.493,198.568L270.151,194.171L265.039,189.68L256.054,196.224L255.111,192.053L250.034,191.778L248.577,187.703L250.784,181.739L254.576,177.896L244.945,173.779L251.118,170.984L248.218,164.259L249.428,159.269L253.426,154.168L264.166,150.678L268.655,152.886L277.149,152.852L282.417,155.197L280.073,151.437L283.758,145.916L288.992,150.458L289.954,153.765L297.857,159.7L301.907,158.034L314.851,165.068L314.287,169.216L322.41,172.476L323.917,171.616L329.854,175.987L335.3,177.739L323.142,188.292L318.312,190.871L319.676,193.786L315.047,198.873L316.977,202.3L315.794,206.78L312.464,207.8z"/>
		<path id="IN-WB" title="West Bengal" class="land" d="M518.212,257.052l1.801,2.021l9.047,1.565l2.321,-2.523l6.037,0.783l3.09,1.032l0.132,4.109l3.919,0.294l2.775,3.456l6.434,-1.522l12.542,4.249l0.357,6.375l-3.97,7.681l-1.728,2.678l-7.848,1.387l-4.968,-3.352l-1.799,-6.81l-4.539,0.767l3.796,1.986l-6.429,0.896l-10.033,-7.505l1.251,2.241l-3.417,6.302l-4.499,1.942l-2.448,6.096l1.697,3.626l3.139,-0.161l4.565,4.782l5.317,3.137l4.198,-1.118l3.823,6.809l-0.879,2.408l-12.474,-0.762l0.208,4.2l-3.363,4.437l-2.541,-2.444l-5.683,7.651l4.952,5.389l13.977,4.844l-0.083,9.468l-4.066,1.394l-0.375,5.69l5.323,5.208l-1.175,4.97l7.171,1.055l-3.259,3.039l-0.223,3.683l2.772,2.942l-0.783,7.128l-5.262,9.508l-3.059,2.544l-0.329,5.118l-5.468,0.727l-4.712,3.158l-1.662,-5.09l0.92,-3.659l-10.434,10.564l-8.043,2.257l-1.003,-3.979l-4.738,-1.385l-2.482,-4.17l-1.903,2.957l-3.592,-5.832l-6.32,-1.572l0.191,-1.876l4.259,-0.962l-3.228,-4.527l-0.06,-3.846l-8.987,-5.336l2.123,-5.578l-7.447,-0.051l-4.589,-3.966l-5.368,-1.346l0.901,-7.192l7.286,-2.55l2.572,3.875l3.601,-4.308l10.747,-2.692l2.692,-5.035l5.99,2.22l4.454,-2.707l-1.479,-3.729l5.751,1.563l0.931,-3.498l5.123,-0.905l5.761,-11.606l-1.836,-3.773l3.493,-4.137l-5.145,-5.093l0.289,-3.378l-0.745,-4.824l4.364,-3.428l3.773,1.456l-0.57,-5.491l-5.901,-4.728l0.503,-4.522l11.758,-8.089l-4.856,-4.75l2.206,-6.164l-1.386,-5.59l-3.746,-3.135L518.212,257.052zM543.511,383.477l2.017,6.643l-2.795,-3.386L543.511,383.477zM521.35,396.742l0.464,5.881l-2.956,0.021L521.35,396.742z"/>
		<path id="IN-JK" title="Jammu and Kashmir" class="land" d="M200.754,117.01L196.546,121.141L186.372,123.254L178.904,119.208L170.063,119.395L168.594,116.099L170.026,110.122L164.22,113.484L160.617,113.169L148.563,106.98L144.587,106.98L140.61,103.107L141.232,94.027L140.486,83.636L137.628,78.872L136.634,66.554L143.096,63.779L144.835,59.468L152.292,58.239L154.403,52.01L159.315,53.913L165.099,51.425L168.023,57.147L177.042,60.63L180.649,57.894L184.381,61.439L187.678,72.013L192.94,74.999L199.471,81.617L204.633,81.368L210.729,87.899L209.112,92.19L212.595,90.822L220.121,95.674L223.477,100.383L214.325,101.051L210.289,105.08L202.669,108.934L199.066,107.767L201.799,112.28z"/>
	</g>
</svg>